# xmcd
# 
# Track frame offsets:
#     150
#     12403
#     35528
#     62151
#     79882
#     96568
#     116067
#     139402
# 
# Disc length: 2107
# 
# Revision: 0
# Processed by: cddbd v1.5.2PL0 Copyright (c) Steve Scherf et al.
# Submitted via: fre:ac v1.0.17
# 
DISCID=73083908
DTITLE=The Bronx - Earster～魔帝聖還
DYEAR=0
DGENRE=Heavy Metal
TTITLE0=INTRODUCTION
TTITLE1=DEAD LAW(錆びついた掟)
TTITLE2=LOOK OUT!(気をつけろ!)
TTITLE3=MARY
TTITLE4=AFRICA
TTITLE5=HEATING BRONX
TTITLE6=ラブ・ソングは、もう歌わない
TTITLE7=EMOTIONAL MOVING PICTURE(戦慄の光景)
EXTD=
EXTT0=
EXTT1=
EXTT2=
EXTT3=
EXTT4=
EXTT5=
EXTT6=
EXTT7=
PLAYORDER=
